<mxfile host="app.diagrams.net" modified="2021-03-08T06:26:26.750Z" agent="5.0 (Windows NT 10.0; Win64; x64) AppleWebKit/537.36 (KHTML, like Gecko) Chrome/88.0.4324.190 Safari/537.36" etag="qWCeryOTgnocrOh-YXa5" version="14.4.4" type="github">
  <diagram id="DVfhKNldQt_1H1VPAFZx" name="第 1 页">
    <mxGraphModel dx="813" dy="426" grid="1" gridSize="10" guides="1" tooltips="1" connect="1" arrows="1" fold="1" page="1" pageScale="1" pageWidth="827" pageHeight="1169" math="0" shadow="0">
      <root>
        <mxCell id="0" />
        <mxCell id="1" parent="0" />
        <mxCell id="3pBGqSBrtArBSsRjVc5b-1" value="" style="rounded=1;whiteSpace=wrap;html=1;fillColor=none;" vertex="1" parent="1">
          <mxGeometry x="89.69" y="181.7" width="90" height="78.18" as="geometry" />
        </mxCell>
        <mxCell id="3pBGqSBrtArBSsRjVc5b-2" value="&lt;font style=&quot;font-size: 10.5px&quot;&gt;卷积神经网络&lt;/font&gt;" style="text;html=1;align=center;verticalAlign=middle;resizable=0;points=[];autosize=1;fontSize=10.5;" vertex="1" parent="1">
          <mxGeometry x="92" y="150" width="90" height="20" as="geometry" />
        </mxCell>
        <mxCell id="3pBGqSBrtArBSsRjVc5b-3" value="" style="shape=table;html=1;whiteSpace=wrap;startSize=0;container=1;collapsible=0;childLayout=tableLayout;" vertex="1" parent="1">
          <mxGeometry x="197" y="150" width="120" height="120" as="geometry" />
        </mxCell>
        <mxCell id="3pBGqSBrtArBSsRjVc5b-4" value="" style="shape=partialRectangle;html=1;whiteSpace=wrap;collapsible=0;dropTarget=0;pointerEvents=0;fillColor=none;top=0;left=0;bottom=0;right=0;points=[[0,0.5],[1,0.5]];portConstraint=eastwest;" vertex="1" parent="3pBGqSBrtArBSsRjVc5b-3">
          <mxGeometry width="120" height="17" as="geometry" />
        </mxCell>
        <mxCell id="3pBGqSBrtArBSsRjVc5b-5" value="" style="shape=partialRectangle;html=1;whiteSpace=wrap;connectable=0;overflow=hidden;fillColor=none;top=0;left=0;bottom=0;right=0;" vertex="1" parent="3pBGqSBrtArBSsRjVc5b-4">
          <mxGeometry width="17" height="17" as="geometry" />
        </mxCell>
        <mxCell id="3pBGqSBrtArBSsRjVc5b-6" value="" style="shape=partialRectangle;html=1;whiteSpace=wrap;connectable=0;overflow=hidden;fillColor=none;top=0;left=0;bottom=0;right=0;" vertex="1" parent="3pBGqSBrtArBSsRjVc5b-4">
          <mxGeometry x="17" width="17" height="17" as="geometry" />
        </mxCell>
        <mxCell id="3pBGqSBrtArBSsRjVc5b-7" value="" style="shape=partialRectangle;html=1;whiteSpace=wrap;connectable=0;overflow=hidden;fillColor=none;top=0;left=0;bottom=0;right=0;" vertex="1" parent="3pBGqSBrtArBSsRjVc5b-4">
          <mxGeometry x="34" width="17" height="17" as="geometry" />
        </mxCell>
        <mxCell id="3pBGqSBrtArBSsRjVc5b-8" value="" style="shape=partialRectangle;html=1;whiteSpace=wrap;connectable=0;overflow=hidden;fillColor=none;top=0;left=0;bottom=0;right=0;" vertex="1" parent="3pBGqSBrtArBSsRjVc5b-4">
          <mxGeometry x="51" width="18" height="17" as="geometry" />
        </mxCell>
        <mxCell id="3pBGqSBrtArBSsRjVc5b-9" value="" style="shape=partialRectangle;html=1;whiteSpace=wrap;connectable=0;overflow=hidden;fillColor=none;top=0;left=0;bottom=0;right=0;" vertex="1" parent="3pBGqSBrtArBSsRjVc5b-4">
          <mxGeometry x="69" width="17" height="17" as="geometry" />
        </mxCell>
        <mxCell id="3pBGqSBrtArBSsRjVc5b-10" value="" style="shape=partialRectangle;html=1;whiteSpace=wrap;connectable=0;overflow=hidden;fillColor=none;top=0;left=0;bottom=0;right=0;" vertex="1" parent="3pBGqSBrtArBSsRjVc5b-4">
          <mxGeometry x="86" width="17" height="17" as="geometry" />
        </mxCell>
        <mxCell id="3pBGqSBrtArBSsRjVc5b-11" value="" style="shape=partialRectangle;html=1;whiteSpace=wrap;connectable=0;overflow=hidden;fillColor=none;top=0;left=0;bottom=0;right=0;" vertex="1" parent="3pBGqSBrtArBSsRjVc5b-4">
          <mxGeometry x="103" width="17" height="17" as="geometry" />
        </mxCell>
        <mxCell id="3pBGqSBrtArBSsRjVc5b-12" value="" style="shape=partialRectangle;html=1;whiteSpace=wrap;collapsible=0;dropTarget=0;pointerEvents=0;fillColor=none;top=0;left=0;bottom=0;right=0;points=[[0,0.5],[1,0.5]];portConstraint=eastwest;" vertex="1" parent="3pBGqSBrtArBSsRjVc5b-3">
          <mxGeometry y="17" width="120" height="17" as="geometry" />
        </mxCell>
        <mxCell id="3pBGqSBrtArBSsRjVc5b-13" value="" style="shape=partialRectangle;html=1;whiteSpace=wrap;connectable=0;overflow=hidden;fillColor=none;top=0;left=0;bottom=0;right=0;" vertex="1" parent="3pBGqSBrtArBSsRjVc5b-12">
          <mxGeometry width="17" height="17" as="geometry" />
        </mxCell>
        <mxCell id="3pBGqSBrtArBSsRjVc5b-14" value="" style="shape=partialRectangle;html=1;whiteSpace=wrap;connectable=0;overflow=hidden;fillColor=none;top=0;left=0;bottom=0;right=0;" vertex="1" parent="3pBGqSBrtArBSsRjVc5b-12">
          <mxGeometry x="17" width="17" height="17" as="geometry" />
        </mxCell>
        <mxCell id="3pBGqSBrtArBSsRjVc5b-15" value="" style="shape=partialRectangle;html=1;whiteSpace=wrap;connectable=0;overflow=hidden;fillColor=#fff2cc;top=0;left=0;bottom=0;right=0;strokeColor=#d6b656;" vertex="1" parent="3pBGqSBrtArBSsRjVc5b-12">
          <mxGeometry x="34" width="17" height="17" as="geometry" />
        </mxCell>
        <mxCell id="3pBGqSBrtArBSsRjVc5b-16" value="" style="shape=partialRectangle;html=1;whiteSpace=wrap;connectable=0;overflow=hidden;fillColor=none;top=0;left=0;bottom=0;right=0;" vertex="1" parent="3pBGqSBrtArBSsRjVc5b-12">
          <mxGeometry x="51" width="18" height="17" as="geometry" />
        </mxCell>
        <mxCell id="3pBGqSBrtArBSsRjVc5b-17" value="" style="shape=partialRectangle;html=1;whiteSpace=wrap;connectable=0;overflow=hidden;fillColor=none;top=0;left=0;bottom=0;right=0;" vertex="1" parent="3pBGqSBrtArBSsRjVc5b-12">
          <mxGeometry x="69" width="17" height="17" as="geometry" />
        </mxCell>
        <mxCell id="3pBGqSBrtArBSsRjVc5b-18" value="" style="shape=partialRectangle;html=1;whiteSpace=wrap;connectable=0;overflow=hidden;fillColor=none;top=0;left=0;bottom=0;right=0;" vertex="1" parent="3pBGqSBrtArBSsRjVc5b-12">
          <mxGeometry x="86" width="17" height="17" as="geometry" />
        </mxCell>
        <mxCell id="3pBGqSBrtArBSsRjVc5b-19" value="" style="shape=partialRectangle;html=1;whiteSpace=wrap;connectable=0;overflow=hidden;fillColor=none;top=0;left=0;bottom=0;right=0;" vertex="1" parent="3pBGqSBrtArBSsRjVc5b-12">
          <mxGeometry x="103" width="17" height="17" as="geometry" />
        </mxCell>
        <mxCell id="3pBGqSBrtArBSsRjVc5b-20" value="" style="shape=partialRectangle;html=1;whiteSpace=wrap;collapsible=0;dropTarget=0;pointerEvents=0;fillColor=none;top=0;left=0;bottom=0;right=0;points=[[0,0.5],[1,0.5]];portConstraint=eastwest;" vertex="1" parent="3pBGqSBrtArBSsRjVc5b-3">
          <mxGeometry y="34" width="120" height="17" as="geometry" />
        </mxCell>
        <mxCell id="3pBGqSBrtArBSsRjVc5b-21" value="" style="shape=partialRectangle;html=1;whiteSpace=wrap;connectable=0;overflow=hidden;fillColor=none;top=0;left=0;bottom=0;right=0;" vertex="1" parent="3pBGqSBrtArBSsRjVc5b-20">
          <mxGeometry width="17" height="17" as="geometry" />
        </mxCell>
        <mxCell id="3pBGqSBrtArBSsRjVc5b-22" value="" style="shape=partialRectangle;html=1;whiteSpace=wrap;connectable=0;overflow=hidden;fillColor=none;top=0;left=0;bottom=0;right=0;" vertex="1" parent="3pBGqSBrtArBSsRjVc5b-20">
          <mxGeometry x="17" width="17" height="17" as="geometry" />
        </mxCell>
        <mxCell id="3pBGqSBrtArBSsRjVc5b-23" value="" style="shape=partialRectangle;html=1;whiteSpace=wrap;connectable=0;overflow=hidden;top=0;left=0;bottom=0;right=0;strokeColor=#d79b00;fillColor=none;" vertex="1" parent="3pBGqSBrtArBSsRjVc5b-20">
          <mxGeometry x="34" width="17" height="17" as="geometry" />
        </mxCell>
        <mxCell id="3pBGqSBrtArBSsRjVc5b-24" value="" style="shape=partialRectangle;html=1;whiteSpace=wrap;connectable=0;overflow=hidden;fillColor=none;top=0;left=0;bottom=0;right=0;" vertex="1" parent="3pBGqSBrtArBSsRjVc5b-20">
          <mxGeometry x="51" width="18" height="17" as="geometry" />
        </mxCell>
        <mxCell id="3pBGqSBrtArBSsRjVc5b-25" value="" style="shape=partialRectangle;html=1;whiteSpace=wrap;connectable=0;overflow=hidden;fillColor=none;top=0;left=0;bottom=0;right=0;" vertex="1" parent="3pBGqSBrtArBSsRjVc5b-20">
          <mxGeometry x="69" width="17" height="17" as="geometry" />
        </mxCell>
        <mxCell id="3pBGqSBrtArBSsRjVc5b-26" value="" style="shape=partialRectangle;html=1;whiteSpace=wrap;connectable=0;overflow=hidden;fillColor=none;top=0;left=0;bottom=0;right=0;" vertex="1" parent="3pBGqSBrtArBSsRjVc5b-20">
          <mxGeometry x="86" width="17" height="17" as="geometry" />
        </mxCell>
        <mxCell id="3pBGqSBrtArBSsRjVc5b-27" value="" style="shape=partialRectangle;html=1;whiteSpace=wrap;connectable=0;overflow=hidden;fillColor=none;top=0;left=0;bottom=0;right=0;" vertex="1" parent="3pBGqSBrtArBSsRjVc5b-20">
          <mxGeometry x="103" width="17" height="17" as="geometry" />
        </mxCell>
        <mxCell id="3pBGqSBrtArBSsRjVc5b-28" value="" style="shape=partialRectangle;html=1;whiteSpace=wrap;collapsible=0;dropTarget=0;pointerEvents=0;fillColor=none;top=0;left=0;bottom=0;right=0;points=[[0,0.5],[1,0.5]];portConstraint=eastwest;" vertex="1" parent="3pBGqSBrtArBSsRjVc5b-3">
          <mxGeometry y="51" width="120" height="18" as="geometry" />
        </mxCell>
        <mxCell id="3pBGqSBrtArBSsRjVc5b-29" value="" style="shape=partialRectangle;html=1;whiteSpace=wrap;connectable=0;overflow=hidden;fillColor=none;top=0;left=0;bottom=0;right=0;" vertex="1" parent="3pBGqSBrtArBSsRjVc5b-28">
          <mxGeometry width="17" height="18" as="geometry" />
        </mxCell>
        <mxCell id="3pBGqSBrtArBSsRjVc5b-30" value="" style="shape=partialRectangle;html=1;whiteSpace=wrap;connectable=0;overflow=hidden;fillColor=none;top=0;left=0;bottom=0;right=0;" vertex="1" parent="3pBGqSBrtArBSsRjVc5b-28">
          <mxGeometry x="17" width="17" height="18" as="geometry" />
        </mxCell>
        <mxCell id="3pBGqSBrtArBSsRjVc5b-31" value="" style="shape=partialRectangle;html=1;whiteSpace=wrap;connectable=0;overflow=hidden;fillColor=none;top=0;left=0;bottom=0;right=0;" vertex="1" parent="3pBGqSBrtArBSsRjVc5b-28">
          <mxGeometry x="34" width="17" height="18" as="geometry" />
        </mxCell>
        <mxCell id="3pBGqSBrtArBSsRjVc5b-32" value="" style="shape=partialRectangle;html=1;whiteSpace=wrap;connectable=0;overflow=hidden;fillColor=none;top=0;left=0;bottom=0;right=0;" vertex="1" parent="3pBGqSBrtArBSsRjVc5b-28">
          <mxGeometry x="51" width="18" height="18" as="geometry" />
        </mxCell>
        <mxCell id="3pBGqSBrtArBSsRjVc5b-33" value="" style="shape=partialRectangle;html=1;whiteSpace=wrap;connectable=0;overflow=hidden;fillColor=none;top=0;left=0;bottom=0;right=0;" vertex="1" parent="3pBGqSBrtArBSsRjVc5b-28">
          <mxGeometry x="69" width="17" height="18" as="geometry" />
        </mxCell>
        <mxCell id="3pBGqSBrtArBSsRjVc5b-34" value="" style="shape=partialRectangle;html=1;whiteSpace=wrap;connectable=0;overflow=hidden;fillColor=none;top=0;left=0;bottom=0;right=0;" vertex="1" parent="3pBGqSBrtArBSsRjVc5b-28">
          <mxGeometry x="86" width="17" height="18" as="geometry" />
        </mxCell>
        <mxCell id="3pBGqSBrtArBSsRjVc5b-35" value="" style="shape=partialRectangle;html=1;whiteSpace=wrap;connectable=0;overflow=hidden;fillColor=none;top=0;left=0;bottom=0;right=0;" vertex="1" parent="3pBGqSBrtArBSsRjVc5b-28">
          <mxGeometry x="103" width="17" height="18" as="geometry" />
        </mxCell>
        <mxCell id="3pBGqSBrtArBSsRjVc5b-36" value="" style="shape=partialRectangle;html=1;whiteSpace=wrap;collapsible=0;dropTarget=0;pointerEvents=0;fillColor=none;top=0;left=0;bottom=0;right=0;points=[[0,0.5],[1,0.5]];portConstraint=eastwest;" vertex="1" parent="3pBGqSBrtArBSsRjVc5b-3">
          <mxGeometry y="69" width="120" height="17" as="geometry" />
        </mxCell>
        <mxCell id="3pBGqSBrtArBSsRjVc5b-37" value="" style="shape=partialRectangle;html=1;whiteSpace=wrap;connectable=0;overflow=hidden;fillColor=none;top=0;left=0;bottom=0;right=0;" vertex="1" parent="3pBGqSBrtArBSsRjVc5b-36">
          <mxGeometry width="17" height="17" as="geometry" />
        </mxCell>
        <mxCell id="3pBGqSBrtArBSsRjVc5b-38" value="" style="shape=partialRectangle;html=1;whiteSpace=wrap;connectable=0;overflow=hidden;fillColor=none;top=0;left=0;bottom=0;right=0;" vertex="1" parent="3pBGqSBrtArBSsRjVc5b-36">
          <mxGeometry x="17" width="17" height="17" as="geometry" />
        </mxCell>
        <mxCell id="3pBGqSBrtArBSsRjVc5b-39" value="" style="shape=partialRectangle;html=1;whiteSpace=wrap;connectable=0;overflow=hidden;fillColor=none;top=0;left=0;bottom=0;right=0;" vertex="1" parent="3pBGqSBrtArBSsRjVc5b-36">
          <mxGeometry x="34" width="17" height="17" as="geometry" />
        </mxCell>
        <mxCell id="3pBGqSBrtArBSsRjVc5b-40" value="" style="shape=partialRectangle;html=1;whiteSpace=wrap;connectable=0;overflow=hidden;fillColor=none;top=0;left=0;bottom=0;right=0;" vertex="1" parent="3pBGqSBrtArBSsRjVc5b-36">
          <mxGeometry x="51" width="18" height="17" as="geometry" />
        </mxCell>
        <mxCell id="3pBGqSBrtArBSsRjVc5b-41" value="" style="shape=partialRectangle;html=1;whiteSpace=wrap;connectable=0;overflow=hidden;fillColor=none;top=0;left=0;bottom=0;right=0;" vertex="1" parent="3pBGqSBrtArBSsRjVc5b-36">
          <mxGeometry x="69" width="17" height="17" as="geometry" />
        </mxCell>
        <mxCell id="3pBGqSBrtArBSsRjVc5b-42" value="" style="shape=partialRectangle;html=1;whiteSpace=wrap;connectable=0;overflow=hidden;fillColor=none;top=0;left=0;bottom=0;right=0;" vertex="1" parent="3pBGqSBrtArBSsRjVc5b-36">
          <mxGeometry x="86" width="17" height="17" as="geometry" />
        </mxCell>
        <mxCell id="3pBGqSBrtArBSsRjVc5b-43" value="" style="shape=partialRectangle;html=1;whiteSpace=wrap;connectable=0;overflow=hidden;fillColor=none;top=0;left=0;bottom=0;right=0;" vertex="1" parent="3pBGqSBrtArBSsRjVc5b-36">
          <mxGeometry x="103" width="17" height="17" as="geometry" />
        </mxCell>
        <mxCell id="3pBGqSBrtArBSsRjVc5b-44" value="" style="shape=partialRectangle;html=1;whiteSpace=wrap;collapsible=0;dropTarget=0;pointerEvents=0;fillColor=none;top=0;left=0;bottom=0;right=0;points=[[0,0.5],[1,0.5]];portConstraint=eastwest;" vertex="1" parent="3pBGqSBrtArBSsRjVc5b-3">
          <mxGeometry y="86" width="120" height="17" as="geometry" />
        </mxCell>
        <mxCell id="3pBGqSBrtArBSsRjVc5b-45" value="" style="shape=partialRectangle;html=1;whiteSpace=wrap;connectable=0;overflow=hidden;fillColor=none;top=0;left=0;bottom=0;right=0;" vertex="1" parent="3pBGqSBrtArBSsRjVc5b-44">
          <mxGeometry width="17" height="17" as="geometry" />
        </mxCell>
        <mxCell id="3pBGqSBrtArBSsRjVc5b-46" value="" style="shape=partialRectangle;html=1;whiteSpace=wrap;connectable=0;overflow=hidden;fillColor=none;top=0;left=0;bottom=0;right=0;" vertex="1" parent="3pBGqSBrtArBSsRjVc5b-44">
          <mxGeometry x="17" width="17" height="17" as="geometry" />
        </mxCell>
        <mxCell id="3pBGqSBrtArBSsRjVc5b-47" value="" style="shape=partialRectangle;html=1;whiteSpace=wrap;connectable=0;overflow=hidden;fillColor=none;top=0;left=0;bottom=0;right=0;" vertex="1" parent="3pBGqSBrtArBSsRjVc5b-44">
          <mxGeometry x="34" width="17" height="17" as="geometry" />
        </mxCell>
        <mxCell id="3pBGqSBrtArBSsRjVc5b-48" value="" style="shape=partialRectangle;html=1;whiteSpace=wrap;connectable=0;overflow=hidden;fillColor=none;top=0;left=0;bottom=0;right=0;" vertex="1" parent="3pBGqSBrtArBSsRjVc5b-44">
          <mxGeometry x="51" width="18" height="17" as="geometry" />
        </mxCell>
        <mxCell id="3pBGqSBrtArBSsRjVc5b-49" value="" style="shape=partialRectangle;html=1;whiteSpace=wrap;connectable=0;overflow=hidden;fillColor=none;top=0;left=0;bottom=0;right=0;" vertex="1" parent="3pBGqSBrtArBSsRjVc5b-44">
          <mxGeometry x="69" width="17" height="17" as="geometry" />
        </mxCell>
        <mxCell id="3pBGqSBrtArBSsRjVc5b-50" value="" style="shape=partialRectangle;html=1;whiteSpace=wrap;connectable=0;overflow=hidden;fillColor=none;top=0;left=0;bottom=0;right=0;" vertex="1" parent="3pBGqSBrtArBSsRjVc5b-44">
          <mxGeometry x="86" width="17" height="17" as="geometry" />
        </mxCell>
        <mxCell id="3pBGqSBrtArBSsRjVc5b-51" value="" style="shape=partialRectangle;html=1;whiteSpace=wrap;connectable=0;overflow=hidden;fillColor=none;top=0;left=0;bottom=0;right=0;" vertex="1" parent="3pBGqSBrtArBSsRjVc5b-44">
          <mxGeometry x="103" width="17" height="17" as="geometry" />
        </mxCell>
        <mxCell id="3pBGqSBrtArBSsRjVc5b-52" value="" style="shape=partialRectangle;html=1;whiteSpace=wrap;collapsible=0;dropTarget=0;pointerEvents=0;fillColor=none;top=0;left=0;bottom=0;right=0;points=[[0,0.5],[1,0.5]];portConstraint=eastwest;" vertex="1" parent="3pBGqSBrtArBSsRjVc5b-3">
          <mxGeometry y="103" width="120" height="17" as="geometry" />
        </mxCell>
        <mxCell id="3pBGqSBrtArBSsRjVc5b-53" value="" style="shape=partialRectangle;html=1;whiteSpace=wrap;connectable=0;overflow=hidden;fillColor=none;top=0;left=0;bottom=0;right=0;" vertex="1" parent="3pBGqSBrtArBSsRjVc5b-52">
          <mxGeometry width="17" height="17" as="geometry" />
        </mxCell>
        <mxCell id="3pBGqSBrtArBSsRjVc5b-54" value="" style="shape=partialRectangle;html=1;whiteSpace=wrap;connectable=0;overflow=hidden;fillColor=none;top=0;left=0;bottom=0;right=0;" vertex="1" parent="3pBGqSBrtArBSsRjVc5b-52">
          <mxGeometry x="17" width="17" height="17" as="geometry" />
        </mxCell>
        <mxCell id="3pBGqSBrtArBSsRjVc5b-55" value="" style="shape=partialRectangle;html=1;whiteSpace=wrap;connectable=0;overflow=hidden;fillColor=none;top=0;left=0;bottom=0;right=0;" vertex="1" parent="3pBGqSBrtArBSsRjVc5b-52">
          <mxGeometry x="34" width="17" height="17" as="geometry" />
        </mxCell>
        <mxCell id="3pBGqSBrtArBSsRjVc5b-56" value="" style="shape=partialRectangle;html=1;whiteSpace=wrap;connectable=0;overflow=hidden;fillColor=none;top=0;left=0;bottom=0;right=0;" vertex="1" parent="3pBGqSBrtArBSsRjVc5b-52">
          <mxGeometry x="51" width="18" height="17" as="geometry" />
        </mxCell>
        <mxCell id="3pBGqSBrtArBSsRjVc5b-57" value="" style="shape=partialRectangle;html=1;whiteSpace=wrap;connectable=0;overflow=hidden;fillColor=none;top=0;left=0;bottom=0;right=0;" vertex="1" parent="3pBGqSBrtArBSsRjVc5b-52">
          <mxGeometry x="69" width="17" height="17" as="geometry" />
        </mxCell>
        <mxCell id="3pBGqSBrtArBSsRjVc5b-58" value="" style="shape=partialRectangle;html=1;whiteSpace=wrap;connectable=0;overflow=hidden;fillColor=none;top=0;left=0;bottom=0;right=0;" vertex="1" parent="3pBGqSBrtArBSsRjVc5b-52">
          <mxGeometry x="86" width="17" height="17" as="geometry" />
        </mxCell>
        <mxCell id="3pBGqSBrtArBSsRjVc5b-59" value="" style="shape=partialRectangle;html=1;whiteSpace=wrap;connectable=0;overflow=hidden;fillColor=none;top=0;left=0;bottom=0;right=0;" vertex="1" parent="3pBGqSBrtArBSsRjVc5b-52">
          <mxGeometry x="103" width="17" height="17" as="geometry" />
        </mxCell>
        <mxCell id="3pBGqSBrtArBSsRjVc5b-60" value="" style="endArrow=none;html=1;exitX=1;exitY=0;exitDx=0;exitDy=0;entryX=0;entryY=0.059;entryDx=0;entryDy=0;entryPerimeter=0;" edge="1" parent="1" source="3pBGqSBrtArBSsRjVc5b-65" target="3pBGqSBrtArBSsRjVc5b-4">
          <mxGeometry width="50" height="50" relative="1" as="geometry">
            <mxPoint x="197" y="270" as="sourcePoint" />
            <mxPoint x="207" y="151" as="targetPoint" />
          </mxGeometry>
        </mxCell>
        <mxCell id="3pBGqSBrtArBSsRjVc5b-61" value="" style="whiteSpace=wrap;html=1;aspect=fixed;fillColor=#dae8fc;strokeColor=#6c8ebf;" vertex="1" parent="1">
          <mxGeometry x="97" y="201" width="23.71886172717495" height="23.71886172717495" as="geometry" />
        </mxCell>
        <mxCell id="3pBGqSBrtArBSsRjVc5b-62" value="" style="whiteSpace=wrap;html=1;aspect=fixed;fillColor=#dae8fc;strokeColor=#6c8ebf;" vertex="1" parent="1">
          <mxGeometry x="99.39281458012385" y="203.87408614137325" width="23.71886172717495" height="23.71886172717495" as="geometry" />
        </mxCell>
        <mxCell id="3pBGqSBrtArBSsRjVc5b-63" value="" style="whiteSpace=wrap;html=1;aspect=fixed;fillColor=#dae8fc;strokeColor=#6c8ebf;" vertex="1" parent="1">
          <mxGeometry x="102.28113827282505" y="206.03953432987083" width="23.71886172717495" height="23.71886172717495" as="geometry" />
        </mxCell>
        <mxCell id="3pBGqSBrtArBSsRjVc5b-64" value="" style="group" vertex="1" connectable="0" parent="1">
          <mxGeometry x="147" y="210" width="20" height="22.78" as="geometry" />
        </mxCell>
        <mxCell id="3pBGqSBrtArBSsRjVc5b-65" value="" style="whiteSpace=wrap;html=1;aspect=fixed;fillColor=#dae8fc;strokeColor=#6c8ebf;" vertex="1" parent="3pBGqSBrtArBSsRjVc5b-64">
          <mxGeometry width="16.35783567391376" height="16.35783567391376" as="geometry" />
        </mxCell>
        <mxCell id="3pBGqSBrtArBSsRjVc5b-66" value="" style="whiteSpace=wrap;html=1;aspect=fixed;fillColor=#dae8fc;strokeColor=#6c8ebf;" vertex="1" parent="3pBGqSBrtArBSsRjVc5b-64">
          <mxGeometry x="1.6502169518095549" y="2.2766110519728455" width="16.35783567391376" height="16.35783567391376" as="geometry" />
        </mxCell>
        <mxCell id="3pBGqSBrtArBSsRjVc5b-67" value="" style="whiteSpace=wrap;html=1;aspect=fixed;fillColor=#dae8fc;strokeColor=#6c8ebf;" vertex="1" parent="3pBGqSBrtArBSsRjVc5b-64">
          <mxGeometry x="3.642164326086239" y="3.991898289693785" width="16.35783567391376" height="16.35783567391376" as="geometry" />
        </mxCell>
        <mxCell id="3pBGqSBrtArBSsRjVc5b-68" value="" style="endArrow=none;dashed=1;html=1;dashPattern=1 4;" edge="1" parent="1">
          <mxGeometry width="50" height="50" relative="1" as="geometry">
            <mxPoint x="131.5" y="229.76" as="sourcePoint" />
            <mxPoint x="142.5" y="229.8800000000001" as="targetPoint" />
          </mxGeometry>
        </mxCell>
        <mxCell id="3pBGqSBrtArBSsRjVc5b-69" value="" style="endArrow=none;html=1;exitX=1;exitY=1;exitDx=0;exitDy=0;entryX=0.005;entryY=1.023;entryDx=0;entryDy=0;entryPerimeter=0;" edge="1" parent="1" source="3pBGqSBrtArBSsRjVc5b-67" target="3pBGqSBrtArBSsRjVc5b-52">
          <mxGeometry width="50" height="50" relative="1" as="geometry">
            <mxPoint x="197" y="250" as="sourcePoint" />
            <mxPoint x="247" y="200" as="targetPoint" />
          </mxGeometry>
        </mxCell>
        <mxCell id="3pBGqSBrtArBSsRjVc5b-70" value="" style="whiteSpace=wrap;html=1;aspect=fixed;fillColor=none;strokeColor=#A680B8;strokeWidth=2;" vertex="1" parent="1">
          <mxGeometry x="215" y="150" width="50" height="50" as="geometry" />
        </mxCell>
        <mxCell id="3pBGqSBrtArBSsRjVc5b-71" value="" style="shape=table;html=1;whiteSpace=wrap;startSize=0;container=1;collapsible=0;childLayout=tableLayout;" vertex="1" parent="1">
          <mxGeometry x="207" y="160" width="120" height="120" as="geometry" />
        </mxCell>
        <mxCell id="3pBGqSBrtArBSsRjVc5b-72" value="" style="shape=partialRectangle;html=1;whiteSpace=wrap;collapsible=0;dropTarget=0;pointerEvents=0;fillColor=none;top=0;left=0;bottom=0;right=0;points=[[0,0.5],[1,0.5]];portConstraint=eastwest;" vertex="1" parent="3pBGqSBrtArBSsRjVc5b-71">
          <mxGeometry width="120" height="17" as="geometry" />
        </mxCell>
        <mxCell id="3pBGqSBrtArBSsRjVc5b-73" value="" style="shape=partialRectangle;html=1;whiteSpace=wrap;connectable=0;overflow=hidden;fillColor=none;top=0;left=0;bottom=0;right=0;" vertex="1" parent="3pBGqSBrtArBSsRjVc5b-72">
          <mxGeometry width="17" height="17" as="geometry" />
        </mxCell>
        <mxCell id="3pBGqSBrtArBSsRjVc5b-74" value="" style="shape=partialRectangle;html=1;whiteSpace=wrap;connectable=0;overflow=hidden;fillColor=none;top=0;left=0;bottom=0;right=0;" vertex="1" parent="3pBGqSBrtArBSsRjVc5b-72">
          <mxGeometry x="17" width="17" height="17" as="geometry" />
        </mxCell>
        <mxCell id="3pBGqSBrtArBSsRjVc5b-75" value="" style="shape=partialRectangle;html=1;whiteSpace=wrap;connectable=0;overflow=hidden;fillColor=none;top=0;left=0;bottom=0;right=0;" vertex="1" parent="3pBGqSBrtArBSsRjVc5b-72">
          <mxGeometry x="34" width="17" height="17" as="geometry" />
        </mxCell>
        <mxCell id="3pBGqSBrtArBSsRjVc5b-76" value="" style="shape=partialRectangle;html=1;whiteSpace=wrap;connectable=0;overflow=hidden;fillColor=none;top=0;left=0;bottom=0;right=0;" vertex="1" parent="3pBGqSBrtArBSsRjVc5b-72">
          <mxGeometry x="51" width="18" height="17" as="geometry" />
        </mxCell>
        <mxCell id="3pBGqSBrtArBSsRjVc5b-77" value="" style="shape=partialRectangle;html=1;whiteSpace=wrap;connectable=0;overflow=hidden;fillColor=none;top=0;left=0;bottom=0;right=0;" vertex="1" parent="3pBGqSBrtArBSsRjVc5b-72">
          <mxGeometry x="69" width="17" height="17" as="geometry" />
        </mxCell>
        <mxCell id="3pBGqSBrtArBSsRjVc5b-78" value="" style="shape=partialRectangle;html=1;whiteSpace=wrap;connectable=0;overflow=hidden;fillColor=none;top=0;left=0;bottom=0;right=0;" vertex="1" parent="3pBGqSBrtArBSsRjVc5b-72">
          <mxGeometry x="86" width="17" height="17" as="geometry" />
        </mxCell>
        <mxCell id="3pBGqSBrtArBSsRjVc5b-79" value="" style="shape=partialRectangle;html=1;whiteSpace=wrap;connectable=0;overflow=hidden;fillColor=none;top=0;left=0;bottom=0;right=0;" vertex="1" parent="3pBGqSBrtArBSsRjVc5b-72">
          <mxGeometry x="103" width="17" height="17" as="geometry" />
        </mxCell>
        <mxCell id="3pBGqSBrtArBSsRjVc5b-80" value="" style="shape=partialRectangle;html=1;whiteSpace=wrap;collapsible=0;dropTarget=0;pointerEvents=0;fillColor=none;top=0;left=0;bottom=0;right=0;points=[[0,0.5],[1,0.5]];portConstraint=eastwest;" vertex="1" parent="3pBGqSBrtArBSsRjVc5b-71">
          <mxGeometry y="17" width="120" height="17" as="geometry" />
        </mxCell>
        <mxCell id="3pBGqSBrtArBSsRjVc5b-81" value="" style="shape=partialRectangle;html=1;whiteSpace=wrap;connectable=0;overflow=hidden;fillColor=none;top=0;left=0;bottom=0;right=0;" vertex="1" parent="3pBGqSBrtArBSsRjVc5b-80">
          <mxGeometry width="17" height="17" as="geometry" />
        </mxCell>
        <mxCell id="3pBGqSBrtArBSsRjVc5b-82" value="" style="shape=partialRectangle;html=1;whiteSpace=wrap;connectable=0;overflow=hidden;fillColor=none;top=0;left=0;bottom=0;right=0;" vertex="1" parent="3pBGqSBrtArBSsRjVc5b-80">
          <mxGeometry x="17" width="17" height="17" as="geometry" />
        </mxCell>
        <mxCell id="3pBGqSBrtArBSsRjVc5b-83" value="" style="shape=partialRectangle;html=1;whiteSpace=wrap;connectable=0;overflow=hidden;fillColor=#fff2cc;top=0;left=0;bottom=0;right=0;strokeColor=#d6b656;" vertex="1" parent="3pBGqSBrtArBSsRjVc5b-80">
          <mxGeometry x="34" width="17" height="17" as="geometry" />
        </mxCell>
        <mxCell id="3pBGqSBrtArBSsRjVc5b-84" value="" style="shape=partialRectangle;html=1;whiteSpace=wrap;connectable=0;overflow=hidden;fillColor=none;top=0;left=0;bottom=0;right=0;" vertex="1" parent="3pBGqSBrtArBSsRjVc5b-80">
          <mxGeometry x="51" width="18" height="17" as="geometry" />
        </mxCell>
        <mxCell id="3pBGqSBrtArBSsRjVc5b-85" value="" style="shape=partialRectangle;html=1;whiteSpace=wrap;connectable=0;overflow=hidden;fillColor=none;top=0;left=0;bottom=0;right=0;" vertex="1" parent="3pBGqSBrtArBSsRjVc5b-80">
          <mxGeometry x="69" width="17" height="17" as="geometry" />
        </mxCell>
        <mxCell id="3pBGqSBrtArBSsRjVc5b-86" value="" style="shape=partialRectangle;html=1;whiteSpace=wrap;connectable=0;overflow=hidden;fillColor=none;top=0;left=0;bottom=0;right=0;" vertex="1" parent="3pBGqSBrtArBSsRjVc5b-80">
          <mxGeometry x="86" width="17" height="17" as="geometry" />
        </mxCell>
        <mxCell id="3pBGqSBrtArBSsRjVc5b-87" value="" style="shape=partialRectangle;html=1;whiteSpace=wrap;connectable=0;overflow=hidden;fillColor=none;top=0;left=0;bottom=0;right=0;" vertex="1" parent="3pBGqSBrtArBSsRjVc5b-80">
          <mxGeometry x="103" width="17" height="17" as="geometry" />
        </mxCell>
        <mxCell id="3pBGqSBrtArBSsRjVc5b-88" value="" style="shape=partialRectangle;html=1;whiteSpace=wrap;collapsible=0;dropTarget=0;pointerEvents=0;fillColor=none;top=0;left=0;bottom=0;right=0;points=[[0,0.5],[1,0.5]];portConstraint=eastwest;" vertex="1" parent="3pBGqSBrtArBSsRjVc5b-71">
          <mxGeometry y="34" width="120" height="17" as="geometry" />
        </mxCell>
        <mxCell id="3pBGqSBrtArBSsRjVc5b-89" value="" style="shape=partialRectangle;html=1;whiteSpace=wrap;connectable=0;overflow=hidden;fillColor=none;top=0;left=0;bottom=0;right=0;" vertex="1" parent="3pBGqSBrtArBSsRjVc5b-88">
          <mxGeometry width="17" height="17" as="geometry" />
        </mxCell>
        <mxCell id="3pBGqSBrtArBSsRjVc5b-90" value="" style="shape=partialRectangle;html=1;whiteSpace=wrap;connectable=0;overflow=hidden;fillColor=none;top=0;left=0;bottom=0;right=0;" vertex="1" parent="3pBGqSBrtArBSsRjVc5b-88">
          <mxGeometry x="17" width="17" height="17" as="geometry" />
        </mxCell>
        <mxCell id="3pBGqSBrtArBSsRjVc5b-91" value="" style="shape=partialRectangle;html=1;whiteSpace=wrap;connectable=0;overflow=hidden;top=0;left=0;bottom=0;right=0;strokeColor=#d79b00;fillColor=none;" vertex="1" parent="3pBGqSBrtArBSsRjVc5b-88">
          <mxGeometry x="34" width="17" height="17" as="geometry" />
        </mxCell>
        <mxCell id="3pBGqSBrtArBSsRjVc5b-92" value="" style="shape=partialRectangle;html=1;whiteSpace=wrap;connectable=0;overflow=hidden;fillColor=none;top=0;left=0;bottom=0;right=0;" vertex="1" parent="3pBGqSBrtArBSsRjVc5b-88">
          <mxGeometry x="51" width="18" height="17" as="geometry" />
        </mxCell>
        <mxCell id="3pBGqSBrtArBSsRjVc5b-93" value="" style="shape=partialRectangle;html=1;whiteSpace=wrap;connectable=0;overflow=hidden;fillColor=none;top=0;left=0;bottom=0;right=0;" vertex="1" parent="3pBGqSBrtArBSsRjVc5b-88">
          <mxGeometry x="69" width="17" height="17" as="geometry" />
        </mxCell>
        <mxCell id="3pBGqSBrtArBSsRjVc5b-94" value="" style="shape=partialRectangle;html=1;whiteSpace=wrap;connectable=0;overflow=hidden;fillColor=none;top=0;left=0;bottom=0;right=0;" vertex="1" parent="3pBGqSBrtArBSsRjVc5b-88">
          <mxGeometry x="86" width="17" height="17" as="geometry" />
        </mxCell>
        <mxCell id="3pBGqSBrtArBSsRjVc5b-95" value="" style="shape=partialRectangle;html=1;whiteSpace=wrap;connectable=0;overflow=hidden;fillColor=none;top=0;left=0;bottom=0;right=0;" vertex="1" parent="3pBGqSBrtArBSsRjVc5b-88">
          <mxGeometry x="103" width="17" height="17" as="geometry" />
        </mxCell>
        <mxCell id="3pBGqSBrtArBSsRjVc5b-96" value="" style="shape=partialRectangle;html=1;whiteSpace=wrap;collapsible=0;dropTarget=0;pointerEvents=0;fillColor=none;top=0;left=0;bottom=0;right=0;points=[[0,0.5],[1,0.5]];portConstraint=eastwest;" vertex="1" parent="3pBGqSBrtArBSsRjVc5b-71">
          <mxGeometry y="51" width="120" height="18" as="geometry" />
        </mxCell>
        <mxCell id="3pBGqSBrtArBSsRjVc5b-97" value="" style="shape=partialRectangle;html=1;whiteSpace=wrap;connectable=0;overflow=hidden;fillColor=none;top=0;left=0;bottom=0;right=0;" vertex="1" parent="3pBGqSBrtArBSsRjVc5b-96">
          <mxGeometry width="17" height="18" as="geometry" />
        </mxCell>
        <mxCell id="3pBGqSBrtArBSsRjVc5b-98" value="" style="shape=partialRectangle;html=1;whiteSpace=wrap;connectable=0;overflow=hidden;fillColor=none;top=0;left=0;bottom=0;right=0;" vertex="1" parent="3pBGqSBrtArBSsRjVc5b-96">
          <mxGeometry x="17" width="17" height="18" as="geometry" />
        </mxCell>
        <mxCell id="3pBGqSBrtArBSsRjVc5b-99" value="" style="shape=partialRectangle;html=1;whiteSpace=wrap;connectable=0;overflow=hidden;fillColor=none;top=0;left=0;bottom=0;right=0;" vertex="1" parent="3pBGqSBrtArBSsRjVc5b-96">
          <mxGeometry x="34" width="17" height="18" as="geometry" />
        </mxCell>
        <mxCell id="3pBGqSBrtArBSsRjVc5b-100" value="" style="shape=partialRectangle;html=1;whiteSpace=wrap;connectable=0;overflow=hidden;fillColor=none;top=0;left=0;bottom=0;right=0;" vertex="1" parent="3pBGqSBrtArBSsRjVc5b-96">
          <mxGeometry x="51" width="18" height="18" as="geometry" />
        </mxCell>
        <mxCell id="3pBGqSBrtArBSsRjVc5b-101" value="" style="shape=partialRectangle;html=1;whiteSpace=wrap;connectable=0;overflow=hidden;fillColor=none;top=0;left=0;bottom=0;right=0;" vertex="1" parent="3pBGqSBrtArBSsRjVc5b-96">
          <mxGeometry x="69" width="17" height="18" as="geometry" />
        </mxCell>
        <mxCell id="3pBGqSBrtArBSsRjVc5b-102" value="" style="shape=partialRectangle;html=1;whiteSpace=wrap;connectable=0;overflow=hidden;fillColor=none;top=0;left=0;bottom=0;right=0;" vertex="1" parent="3pBGqSBrtArBSsRjVc5b-96">
          <mxGeometry x="86" width="17" height="18" as="geometry" />
        </mxCell>
        <mxCell id="3pBGqSBrtArBSsRjVc5b-103" value="" style="shape=partialRectangle;html=1;whiteSpace=wrap;connectable=0;overflow=hidden;fillColor=none;top=0;left=0;bottom=0;right=0;" vertex="1" parent="3pBGqSBrtArBSsRjVc5b-96">
          <mxGeometry x="103" width="17" height="18" as="geometry" />
        </mxCell>
        <mxCell id="3pBGqSBrtArBSsRjVc5b-104" value="" style="shape=partialRectangle;html=1;whiteSpace=wrap;collapsible=0;dropTarget=0;pointerEvents=0;fillColor=none;top=0;left=0;bottom=0;right=0;points=[[0,0.5],[1,0.5]];portConstraint=eastwest;" vertex="1" parent="3pBGqSBrtArBSsRjVc5b-71">
          <mxGeometry y="69" width="120" height="17" as="geometry" />
        </mxCell>
        <mxCell id="3pBGqSBrtArBSsRjVc5b-105" value="" style="shape=partialRectangle;html=1;whiteSpace=wrap;connectable=0;overflow=hidden;fillColor=none;top=0;left=0;bottom=0;right=0;" vertex="1" parent="3pBGqSBrtArBSsRjVc5b-104">
          <mxGeometry width="17" height="17" as="geometry" />
        </mxCell>
        <mxCell id="3pBGqSBrtArBSsRjVc5b-106" value="" style="shape=partialRectangle;html=1;whiteSpace=wrap;connectable=0;overflow=hidden;fillColor=none;top=0;left=0;bottom=0;right=0;" vertex="1" parent="3pBGqSBrtArBSsRjVc5b-104">
          <mxGeometry x="17" width="17" height="17" as="geometry" />
        </mxCell>
        <mxCell id="3pBGqSBrtArBSsRjVc5b-107" value="" style="shape=partialRectangle;html=1;whiteSpace=wrap;connectable=0;overflow=hidden;fillColor=none;top=0;left=0;bottom=0;right=0;" vertex="1" parent="3pBGqSBrtArBSsRjVc5b-104">
          <mxGeometry x="34" width="17" height="17" as="geometry" />
        </mxCell>
        <mxCell id="3pBGqSBrtArBSsRjVc5b-108" value="" style="shape=partialRectangle;html=1;whiteSpace=wrap;connectable=0;overflow=hidden;fillColor=none;top=0;left=0;bottom=0;right=0;" vertex="1" parent="3pBGqSBrtArBSsRjVc5b-104">
          <mxGeometry x="51" width="18" height="17" as="geometry" />
        </mxCell>
        <mxCell id="3pBGqSBrtArBSsRjVc5b-109" value="" style="shape=partialRectangle;html=1;whiteSpace=wrap;connectable=0;overflow=hidden;fillColor=none;top=0;left=0;bottom=0;right=0;" vertex="1" parent="3pBGqSBrtArBSsRjVc5b-104">
          <mxGeometry x="69" width="17" height="17" as="geometry" />
        </mxCell>
        <mxCell id="3pBGqSBrtArBSsRjVc5b-110" value="" style="shape=partialRectangle;html=1;whiteSpace=wrap;connectable=0;overflow=hidden;fillColor=none;top=0;left=0;bottom=0;right=0;" vertex="1" parent="3pBGqSBrtArBSsRjVc5b-104">
          <mxGeometry x="86" width="17" height="17" as="geometry" />
        </mxCell>
        <mxCell id="3pBGqSBrtArBSsRjVc5b-111" value="" style="shape=partialRectangle;html=1;whiteSpace=wrap;connectable=0;overflow=hidden;fillColor=none;top=0;left=0;bottom=0;right=0;" vertex="1" parent="3pBGqSBrtArBSsRjVc5b-104">
          <mxGeometry x="103" width="17" height="17" as="geometry" />
        </mxCell>
        <mxCell id="3pBGqSBrtArBSsRjVc5b-112" value="" style="shape=partialRectangle;html=1;whiteSpace=wrap;collapsible=0;dropTarget=0;pointerEvents=0;fillColor=none;top=0;left=0;bottom=0;right=0;points=[[0,0.5],[1,0.5]];portConstraint=eastwest;" vertex="1" parent="3pBGqSBrtArBSsRjVc5b-71">
          <mxGeometry y="86" width="120" height="17" as="geometry" />
        </mxCell>
        <mxCell id="3pBGqSBrtArBSsRjVc5b-113" value="" style="shape=partialRectangle;html=1;whiteSpace=wrap;connectable=0;overflow=hidden;fillColor=none;top=0;left=0;bottom=0;right=0;" vertex="1" parent="3pBGqSBrtArBSsRjVc5b-112">
          <mxGeometry width="17" height="17" as="geometry" />
        </mxCell>
        <mxCell id="3pBGqSBrtArBSsRjVc5b-114" value="" style="shape=partialRectangle;html=1;whiteSpace=wrap;connectable=0;overflow=hidden;fillColor=none;top=0;left=0;bottom=0;right=0;" vertex="1" parent="3pBGqSBrtArBSsRjVc5b-112">
          <mxGeometry x="17" width="17" height="17" as="geometry" />
        </mxCell>
        <mxCell id="3pBGqSBrtArBSsRjVc5b-115" value="" style="shape=partialRectangle;html=1;whiteSpace=wrap;connectable=0;overflow=hidden;fillColor=none;top=0;left=0;bottom=0;right=0;" vertex="1" parent="3pBGqSBrtArBSsRjVc5b-112">
          <mxGeometry x="34" width="17" height="17" as="geometry" />
        </mxCell>
        <mxCell id="3pBGqSBrtArBSsRjVc5b-116" value="" style="shape=partialRectangle;html=1;whiteSpace=wrap;connectable=0;overflow=hidden;fillColor=none;top=0;left=0;bottom=0;right=0;" vertex="1" parent="3pBGqSBrtArBSsRjVc5b-112">
          <mxGeometry x="51" width="18" height="17" as="geometry" />
        </mxCell>
        <mxCell id="3pBGqSBrtArBSsRjVc5b-117" value="" style="shape=partialRectangle;html=1;whiteSpace=wrap;connectable=0;overflow=hidden;fillColor=none;top=0;left=0;bottom=0;right=0;" vertex="1" parent="3pBGqSBrtArBSsRjVc5b-112">
          <mxGeometry x="69" width="17" height="17" as="geometry" />
        </mxCell>
        <mxCell id="3pBGqSBrtArBSsRjVc5b-118" value="" style="shape=partialRectangle;html=1;whiteSpace=wrap;connectable=0;overflow=hidden;fillColor=none;top=0;left=0;bottom=0;right=0;" vertex="1" parent="3pBGqSBrtArBSsRjVc5b-112">
          <mxGeometry x="86" width="17" height="17" as="geometry" />
        </mxCell>
        <mxCell id="3pBGqSBrtArBSsRjVc5b-119" value="" style="shape=partialRectangle;html=1;whiteSpace=wrap;connectable=0;overflow=hidden;fillColor=none;top=0;left=0;bottom=0;right=0;" vertex="1" parent="3pBGqSBrtArBSsRjVc5b-112">
          <mxGeometry x="103" width="17" height="17" as="geometry" />
        </mxCell>
        <mxCell id="3pBGqSBrtArBSsRjVc5b-120" value="" style="shape=partialRectangle;html=1;whiteSpace=wrap;collapsible=0;dropTarget=0;pointerEvents=0;fillColor=none;top=0;left=0;bottom=0;right=0;points=[[0,0.5],[1,0.5]];portConstraint=eastwest;" vertex="1" parent="3pBGqSBrtArBSsRjVc5b-71">
          <mxGeometry y="103" width="120" height="17" as="geometry" />
        </mxCell>
        <mxCell id="3pBGqSBrtArBSsRjVc5b-121" value="" style="shape=partialRectangle;html=1;whiteSpace=wrap;connectable=0;overflow=hidden;fillColor=none;top=0;left=0;bottom=0;right=0;" vertex="1" parent="3pBGqSBrtArBSsRjVc5b-120">
          <mxGeometry width="17" height="17" as="geometry" />
        </mxCell>
        <mxCell id="3pBGqSBrtArBSsRjVc5b-122" value="" style="shape=partialRectangle;html=1;whiteSpace=wrap;connectable=0;overflow=hidden;fillColor=none;top=0;left=0;bottom=0;right=0;" vertex="1" parent="3pBGqSBrtArBSsRjVc5b-120">
          <mxGeometry x="17" width="17" height="17" as="geometry" />
        </mxCell>
        <mxCell id="3pBGqSBrtArBSsRjVc5b-123" value="" style="shape=partialRectangle;html=1;whiteSpace=wrap;connectable=0;overflow=hidden;fillColor=none;top=0;left=0;bottom=0;right=0;" vertex="1" parent="3pBGqSBrtArBSsRjVc5b-120">
          <mxGeometry x="34" width="17" height="17" as="geometry" />
        </mxCell>
        <mxCell id="3pBGqSBrtArBSsRjVc5b-124" value="" style="shape=partialRectangle;html=1;whiteSpace=wrap;connectable=0;overflow=hidden;fillColor=none;top=0;left=0;bottom=0;right=0;" vertex="1" parent="3pBGqSBrtArBSsRjVc5b-120">
          <mxGeometry x="51" width="18" height="17" as="geometry" />
        </mxCell>
        <mxCell id="3pBGqSBrtArBSsRjVc5b-125" value="" style="shape=partialRectangle;html=1;whiteSpace=wrap;connectable=0;overflow=hidden;fillColor=none;top=0;left=0;bottom=0;right=0;" vertex="1" parent="3pBGqSBrtArBSsRjVc5b-120">
          <mxGeometry x="69" width="17" height="17" as="geometry" />
        </mxCell>
        <mxCell id="3pBGqSBrtArBSsRjVc5b-126" value="" style="shape=partialRectangle;html=1;whiteSpace=wrap;connectable=0;overflow=hidden;fillColor=none;top=0;left=0;bottom=0;right=0;" vertex="1" parent="3pBGqSBrtArBSsRjVc5b-120">
          <mxGeometry x="86" width="17" height="17" as="geometry" />
        </mxCell>
        <mxCell id="3pBGqSBrtArBSsRjVc5b-127" value="" style="shape=partialRectangle;html=1;whiteSpace=wrap;connectable=0;overflow=hidden;fillColor=none;top=0;left=0;bottom=0;right=0;" vertex="1" parent="3pBGqSBrtArBSsRjVc5b-120">
          <mxGeometry x="103" width="17" height="17" as="geometry" />
        </mxCell>
        <mxCell id="3pBGqSBrtArBSsRjVc5b-128" value="" style="whiteSpace=wrap;html=1;aspect=fixed;fillColor=none;strokeColor=#A680B8;strokeWidth=2;" vertex="1" parent="1">
          <mxGeometry x="225" y="160" width="50" height="50" as="geometry" />
        </mxCell>
        <mxCell id="3pBGqSBrtArBSsRjVc5b-129" value="" style="shape=table;html=1;whiteSpace=wrap;startSize=0;container=1;collapsible=0;childLayout=tableLayout;" vertex="1" parent="1">
          <mxGeometry x="217" y="170" width="120" height="120" as="geometry" />
        </mxCell>
        <mxCell id="3pBGqSBrtArBSsRjVc5b-130" value="" style="shape=partialRectangle;html=1;whiteSpace=wrap;collapsible=0;dropTarget=0;pointerEvents=0;fillColor=none;top=0;left=0;bottom=0;right=0;points=[[0,0.5],[1,0.5]];portConstraint=eastwest;" vertex="1" parent="3pBGqSBrtArBSsRjVc5b-129">
          <mxGeometry width="120" height="17" as="geometry" />
        </mxCell>
        <mxCell id="3pBGqSBrtArBSsRjVc5b-131" value="" style="shape=partialRectangle;html=1;whiteSpace=wrap;connectable=0;overflow=hidden;fillColor=none;top=0;left=0;bottom=0;right=0;" vertex="1" parent="3pBGqSBrtArBSsRjVc5b-130">
          <mxGeometry width="17" height="17" as="geometry" />
        </mxCell>
        <mxCell id="3pBGqSBrtArBSsRjVc5b-132" value="1" style="shape=partialRectangle;html=1;whiteSpace=wrap;connectable=0;overflow=hidden;fillColor=none;top=0;left=0;bottom=0;right=0;" vertex="1" parent="3pBGqSBrtArBSsRjVc5b-130">
          <mxGeometry x="17" width="17" height="17" as="geometry" />
        </mxCell>
        <mxCell id="3pBGqSBrtArBSsRjVc5b-133" value="2" style="shape=partialRectangle;html=1;whiteSpace=wrap;connectable=0;overflow=hidden;fillColor=none;top=0;left=0;bottom=0;right=0;" vertex="1" parent="3pBGqSBrtArBSsRjVc5b-130">
          <mxGeometry x="34" width="17" height="17" as="geometry" />
        </mxCell>
        <mxCell id="3pBGqSBrtArBSsRjVc5b-134" value="3" style="shape=partialRectangle;html=1;whiteSpace=wrap;connectable=0;overflow=hidden;fillColor=none;top=0;left=0;bottom=0;right=0;" vertex="1" parent="3pBGqSBrtArBSsRjVc5b-130">
          <mxGeometry x="51" width="18" height="17" as="geometry" />
        </mxCell>
        <mxCell id="3pBGqSBrtArBSsRjVc5b-135" value="" style="shape=partialRectangle;html=1;whiteSpace=wrap;connectable=0;overflow=hidden;fillColor=none;top=0;left=0;bottom=0;right=0;" vertex="1" parent="3pBGqSBrtArBSsRjVc5b-130">
          <mxGeometry x="69" width="17" height="17" as="geometry" />
        </mxCell>
        <mxCell id="3pBGqSBrtArBSsRjVc5b-136" value="" style="shape=partialRectangle;html=1;whiteSpace=wrap;connectable=0;overflow=hidden;fillColor=none;top=0;left=0;bottom=0;right=0;" vertex="1" parent="3pBGqSBrtArBSsRjVc5b-130">
          <mxGeometry x="86" width="17" height="17" as="geometry" />
        </mxCell>
        <mxCell id="3pBGqSBrtArBSsRjVc5b-137" value="" style="shape=partialRectangle;html=1;whiteSpace=wrap;connectable=0;overflow=hidden;fillColor=none;top=0;left=0;bottom=0;right=0;" vertex="1" parent="3pBGqSBrtArBSsRjVc5b-130">
          <mxGeometry x="103" width="17" height="17" as="geometry" />
        </mxCell>
        <mxCell id="3pBGqSBrtArBSsRjVc5b-138" value="" style="shape=partialRectangle;html=1;whiteSpace=wrap;collapsible=0;dropTarget=0;pointerEvents=0;fillColor=none;top=0;left=0;bottom=0;right=0;points=[[0,0.5],[1,0.5]];portConstraint=eastwest;" vertex="1" parent="3pBGqSBrtArBSsRjVc5b-129">
          <mxGeometry y="17" width="120" height="17" as="geometry" />
        </mxCell>
        <mxCell id="3pBGqSBrtArBSsRjVc5b-139" value="" style="shape=partialRectangle;html=1;whiteSpace=wrap;connectable=0;overflow=hidden;fillColor=none;top=0;left=0;bottom=0;right=0;" vertex="1" parent="3pBGqSBrtArBSsRjVc5b-138">
          <mxGeometry width="17" height="17" as="geometry" />
        </mxCell>
        <mxCell id="3pBGqSBrtArBSsRjVc5b-140" value="4" style="shape=partialRectangle;html=1;whiteSpace=wrap;connectable=0;overflow=hidden;fillColor=none;top=0;left=0;bottom=0;right=0;" vertex="1" parent="3pBGqSBrtArBSsRjVc5b-138">
          <mxGeometry x="17" width="17" height="17" as="geometry" />
        </mxCell>
        <mxCell id="3pBGqSBrtArBSsRjVc5b-141" value="5" style="shape=partialRectangle;html=1;whiteSpace=wrap;connectable=0;overflow=hidden;fillColor=#fff2cc;top=0;left=0;bottom=0;right=0;strokeColor=#d6b656;" vertex="1" parent="3pBGqSBrtArBSsRjVc5b-138">
          <mxGeometry x="34" width="17" height="17" as="geometry" />
        </mxCell>
        <mxCell id="3pBGqSBrtArBSsRjVc5b-142" value="6" style="shape=partialRectangle;html=1;whiteSpace=wrap;connectable=0;overflow=hidden;fillColor=none;top=0;left=0;bottom=0;right=0;" vertex="1" parent="3pBGqSBrtArBSsRjVc5b-138">
          <mxGeometry x="51" width="18" height="17" as="geometry" />
        </mxCell>
        <mxCell id="3pBGqSBrtArBSsRjVc5b-143" value="" style="shape=partialRectangle;html=1;whiteSpace=wrap;connectable=0;overflow=hidden;fillColor=none;top=0;left=0;bottom=0;right=0;" vertex="1" parent="3pBGqSBrtArBSsRjVc5b-138">
          <mxGeometry x="69" width="17" height="17" as="geometry" />
        </mxCell>
        <mxCell id="3pBGqSBrtArBSsRjVc5b-144" value="" style="shape=partialRectangle;html=1;whiteSpace=wrap;connectable=0;overflow=hidden;fillColor=none;top=0;left=0;bottom=0;right=0;" vertex="1" parent="3pBGqSBrtArBSsRjVc5b-138">
          <mxGeometry x="86" width="17" height="17" as="geometry" />
        </mxCell>
        <mxCell id="3pBGqSBrtArBSsRjVc5b-145" value="" style="shape=partialRectangle;html=1;whiteSpace=wrap;connectable=0;overflow=hidden;fillColor=none;top=0;left=0;bottom=0;right=0;" vertex="1" parent="3pBGqSBrtArBSsRjVc5b-138">
          <mxGeometry x="103" width="17" height="17" as="geometry" />
        </mxCell>
        <mxCell id="3pBGqSBrtArBSsRjVc5b-146" value="" style="shape=partialRectangle;html=1;whiteSpace=wrap;collapsible=0;dropTarget=0;pointerEvents=0;fillColor=none;top=0;left=0;bottom=0;right=0;points=[[0,0.5],[1,0.5]];portConstraint=eastwest;" vertex="1" parent="3pBGqSBrtArBSsRjVc5b-129">
          <mxGeometry y="34" width="120" height="17" as="geometry" />
        </mxCell>
        <mxCell id="3pBGqSBrtArBSsRjVc5b-147" value="" style="shape=partialRectangle;html=1;whiteSpace=wrap;connectable=0;overflow=hidden;fillColor=none;top=0;left=0;bottom=0;right=0;" vertex="1" parent="3pBGqSBrtArBSsRjVc5b-146">
          <mxGeometry width="17" height="17" as="geometry" />
        </mxCell>
        <mxCell id="3pBGqSBrtArBSsRjVc5b-148" value="7" style="shape=partialRectangle;html=1;whiteSpace=wrap;connectable=0;overflow=hidden;fillColor=none;top=0;left=0;bottom=0;right=0;" vertex="1" parent="3pBGqSBrtArBSsRjVc5b-146">
          <mxGeometry x="17" width="17" height="17" as="geometry" />
        </mxCell>
        <mxCell id="3pBGqSBrtArBSsRjVc5b-149" value="8" style="shape=partialRectangle;html=1;whiteSpace=wrap;connectable=0;overflow=hidden;top=0;left=0;bottom=0;right=0;strokeColor=#d79b00;fillColor=none;" vertex="1" parent="3pBGqSBrtArBSsRjVc5b-146">
          <mxGeometry x="34" width="17" height="17" as="geometry" />
        </mxCell>
        <mxCell id="3pBGqSBrtArBSsRjVc5b-150" value="9" style="shape=partialRectangle;html=1;whiteSpace=wrap;connectable=0;overflow=hidden;fillColor=none;top=0;left=0;bottom=0;right=0;" vertex="1" parent="3pBGqSBrtArBSsRjVc5b-146">
          <mxGeometry x="51" width="18" height="17" as="geometry" />
        </mxCell>
        <mxCell id="3pBGqSBrtArBSsRjVc5b-151" value="" style="shape=partialRectangle;html=1;whiteSpace=wrap;connectable=0;overflow=hidden;fillColor=none;top=0;left=0;bottom=0;right=0;" vertex="1" parent="3pBGqSBrtArBSsRjVc5b-146">
          <mxGeometry x="69" width="17" height="17" as="geometry" />
        </mxCell>
        <mxCell id="3pBGqSBrtArBSsRjVc5b-152" value="" style="shape=partialRectangle;html=1;whiteSpace=wrap;connectable=0;overflow=hidden;fillColor=none;top=0;left=0;bottom=0;right=0;" vertex="1" parent="3pBGqSBrtArBSsRjVc5b-146">
          <mxGeometry x="86" width="17" height="17" as="geometry" />
        </mxCell>
        <mxCell id="3pBGqSBrtArBSsRjVc5b-153" value="" style="shape=partialRectangle;html=1;whiteSpace=wrap;connectable=0;overflow=hidden;fillColor=none;top=0;left=0;bottom=0;right=0;" vertex="1" parent="3pBGqSBrtArBSsRjVc5b-146">
          <mxGeometry x="103" width="17" height="17" as="geometry" />
        </mxCell>
        <mxCell id="3pBGqSBrtArBSsRjVc5b-154" value="" style="shape=partialRectangle;html=1;whiteSpace=wrap;collapsible=0;dropTarget=0;pointerEvents=0;fillColor=none;top=0;left=0;bottom=0;right=0;points=[[0,0.5],[1,0.5]];portConstraint=eastwest;" vertex="1" parent="3pBGqSBrtArBSsRjVc5b-129">
          <mxGeometry y="51" width="120" height="18" as="geometry" />
        </mxCell>
        <mxCell id="3pBGqSBrtArBSsRjVc5b-155" value="" style="shape=partialRectangle;html=1;whiteSpace=wrap;connectable=0;overflow=hidden;fillColor=none;top=0;left=0;bottom=0;right=0;" vertex="1" parent="3pBGqSBrtArBSsRjVc5b-154">
          <mxGeometry width="17" height="18" as="geometry" />
        </mxCell>
        <mxCell id="3pBGqSBrtArBSsRjVc5b-156" value="" style="shape=partialRectangle;html=1;whiteSpace=wrap;connectable=0;overflow=hidden;fillColor=none;top=0;left=0;bottom=0;right=0;" vertex="1" parent="3pBGqSBrtArBSsRjVc5b-154">
          <mxGeometry x="17" width="17" height="18" as="geometry" />
        </mxCell>
        <mxCell id="3pBGqSBrtArBSsRjVc5b-157" value="" style="shape=partialRectangle;html=1;whiteSpace=wrap;connectable=0;overflow=hidden;fillColor=none;top=0;left=0;bottom=0;right=0;" vertex="1" parent="3pBGqSBrtArBSsRjVc5b-154">
          <mxGeometry x="34" width="17" height="18" as="geometry" />
        </mxCell>
        <mxCell id="3pBGqSBrtArBSsRjVc5b-158" value="" style="shape=partialRectangle;html=1;whiteSpace=wrap;connectable=0;overflow=hidden;fillColor=none;top=0;left=0;bottom=0;right=0;" vertex="1" parent="3pBGqSBrtArBSsRjVc5b-154">
          <mxGeometry x="51" width="18" height="18" as="geometry" />
        </mxCell>
        <mxCell id="3pBGqSBrtArBSsRjVc5b-159" value="" style="shape=partialRectangle;html=1;whiteSpace=wrap;connectable=0;overflow=hidden;fillColor=none;top=0;left=0;bottom=0;right=0;" vertex="1" parent="3pBGqSBrtArBSsRjVc5b-154">
          <mxGeometry x="69" width="17" height="18" as="geometry" />
        </mxCell>
        <mxCell id="3pBGqSBrtArBSsRjVc5b-160" value="" style="shape=partialRectangle;html=1;whiteSpace=wrap;connectable=0;overflow=hidden;fillColor=none;top=0;left=0;bottom=0;right=0;" vertex="1" parent="3pBGqSBrtArBSsRjVc5b-154">
          <mxGeometry x="86" width="17" height="18" as="geometry" />
        </mxCell>
        <mxCell id="3pBGqSBrtArBSsRjVc5b-161" value="" style="shape=partialRectangle;html=1;whiteSpace=wrap;connectable=0;overflow=hidden;fillColor=none;top=0;left=0;bottom=0;right=0;" vertex="1" parent="3pBGqSBrtArBSsRjVc5b-154">
          <mxGeometry x="103" width="17" height="18" as="geometry" />
        </mxCell>
        <mxCell id="3pBGqSBrtArBSsRjVc5b-162" value="" style="shape=partialRectangle;html=1;whiteSpace=wrap;collapsible=0;dropTarget=0;pointerEvents=0;fillColor=none;top=0;left=0;bottom=0;right=0;points=[[0,0.5],[1,0.5]];portConstraint=eastwest;" vertex="1" parent="3pBGqSBrtArBSsRjVc5b-129">
          <mxGeometry y="69" width="120" height="17" as="geometry" />
        </mxCell>
        <mxCell id="3pBGqSBrtArBSsRjVc5b-163" value="" style="shape=partialRectangle;html=1;whiteSpace=wrap;connectable=0;overflow=hidden;fillColor=none;top=0;left=0;bottom=0;right=0;" vertex="1" parent="3pBGqSBrtArBSsRjVc5b-162">
          <mxGeometry width="17" height="17" as="geometry" />
        </mxCell>
        <mxCell id="3pBGqSBrtArBSsRjVc5b-164" value="" style="shape=partialRectangle;html=1;whiteSpace=wrap;connectable=0;overflow=hidden;fillColor=none;top=0;left=0;bottom=0;right=0;" vertex="1" parent="3pBGqSBrtArBSsRjVc5b-162">
          <mxGeometry x="17" width="17" height="17" as="geometry" />
        </mxCell>
        <mxCell id="3pBGqSBrtArBSsRjVc5b-165" value="" style="shape=partialRectangle;html=1;whiteSpace=wrap;connectable=0;overflow=hidden;fillColor=none;top=0;left=0;bottom=0;right=0;" vertex="1" parent="3pBGqSBrtArBSsRjVc5b-162">
          <mxGeometry x="34" width="17" height="17" as="geometry" />
        </mxCell>
        <mxCell id="3pBGqSBrtArBSsRjVc5b-166" value="" style="shape=partialRectangle;html=1;whiteSpace=wrap;connectable=0;overflow=hidden;fillColor=none;top=0;left=0;bottom=0;right=0;" vertex="1" parent="3pBGqSBrtArBSsRjVc5b-162">
          <mxGeometry x="51" width="18" height="17" as="geometry" />
        </mxCell>
        <mxCell id="3pBGqSBrtArBSsRjVc5b-167" value="" style="shape=partialRectangle;html=1;whiteSpace=wrap;connectable=0;overflow=hidden;fillColor=none;top=0;left=0;bottom=0;right=0;" vertex="1" parent="3pBGqSBrtArBSsRjVc5b-162">
          <mxGeometry x="69" width="17" height="17" as="geometry" />
        </mxCell>
        <mxCell id="3pBGqSBrtArBSsRjVc5b-168" value="" style="shape=partialRectangle;html=1;whiteSpace=wrap;connectable=0;overflow=hidden;fillColor=none;top=0;left=0;bottom=0;right=0;" vertex="1" parent="3pBGqSBrtArBSsRjVc5b-162">
          <mxGeometry x="86" width="17" height="17" as="geometry" />
        </mxCell>
        <mxCell id="3pBGqSBrtArBSsRjVc5b-169" value="" style="shape=partialRectangle;html=1;whiteSpace=wrap;connectable=0;overflow=hidden;fillColor=none;top=0;left=0;bottom=0;right=0;" vertex="1" parent="3pBGqSBrtArBSsRjVc5b-162">
          <mxGeometry x="103" width="17" height="17" as="geometry" />
        </mxCell>
        <mxCell id="3pBGqSBrtArBSsRjVc5b-170" value="" style="shape=partialRectangle;html=1;whiteSpace=wrap;collapsible=0;dropTarget=0;pointerEvents=0;fillColor=none;top=0;left=0;bottom=0;right=0;points=[[0,0.5],[1,0.5]];portConstraint=eastwest;" vertex="1" parent="3pBGqSBrtArBSsRjVc5b-129">
          <mxGeometry y="86" width="120" height="17" as="geometry" />
        </mxCell>
        <mxCell id="3pBGqSBrtArBSsRjVc5b-171" value="" style="shape=partialRectangle;html=1;whiteSpace=wrap;connectable=0;overflow=hidden;fillColor=none;top=0;left=0;bottom=0;right=0;" vertex="1" parent="3pBGqSBrtArBSsRjVc5b-170">
          <mxGeometry width="17" height="17" as="geometry" />
        </mxCell>
        <mxCell id="3pBGqSBrtArBSsRjVc5b-172" value="" style="shape=partialRectangle;html=1;whiteSpace=wrap;connectable=0;overflow=hidden;fillColor=none;top=0;left=0;bottom=0;right=0;" vertex="1" parent="3pBGqSBrtArBSsRjVc5b-170">
          <mxGeometry x="17" width="17" height="17" as="geometry" />
        </mxCell>
        <mxCell id="3pBGqSBrtArBSsRjVc5b-173" value="" style="shape=partialRectangle;html=1;whiteSpace=wrap;connectable=0;overflow=hidden;fillColor=none;top=0;left=0;bottom=0;right=0;" vertex="1" parent="3pBGqSBrtArBSsRjVc5b-170">
          <mxGeometry x="34" width="17" height="17" as="geometry" />
        </mxCell>
        <mxCell id="3pBGqSBrtArBSsRjVc5b-174" value="" style="shape=partialRectangle;html=1;whiteSpace=wrap;connectable=0;overflow=hidden;fillColor=none;top=0;left=0;bottom=0;right=0;" vertex="1" parent="3pBGqSBrtArBSsRjVc5b-170">
          <mxGeometry x="51" width="18" height="17" as="geometry" />
        </mxCell>
        <mxCell id="3pBGqSBrtArBSsRjVc5b-175" value="" style="shape=partialRectangle;html=1;whiteSpace=wrap;connectable=0;overflow=hidden;fillColor=none;top=0;left=0;bottom=0;right=0;" vertex="1" parent="3pBGqSBrtArBSsRjVc5b-170">
          <mxGeometry x="69" width="17" height="17" as="geometry" />
        </mxCell>
        <mxCell id="3pBGqSBrtArBSsRjVc5b-176" value="" style="shape=partialRectangle;html=1;whiteSpace=wrap;connectable=0;overflow=hidden;fillColor=none;top=0;left=0;bottom=0;right=0;" vertex="1" parent="3pBGqSBrtArBSsRjVc5b-170">
          <mxGeometry x="86" width="17" height="17" as="geometry" />
        </mxCell>
        <mxCell id="3pBGqSBrtArBSsRjVc5b-177" value="" style="shape=partialRectangle;html=1;whiteSpace=wrap;connectable=0;overflow=hidden;fillColor=none;top=0;left=0;bottom=0;right=0;" vertex="1" parent="3pBGqSBrtArBSsRjVc5b-170">
          <mxGeometry x="103" width="17" height="17" as="geometry" />
        </mxCell>
        <mxCell id="3pBGqSBrtArBSsRjVc5b-178" value="" style="shape=partialRectangle;html=1;whiteSpace=wrap;collapsible=0;dropTarget=0;pointerEvents=0;fillColor=none;top=0;left=0;bottom=0;right=0;points=[[0,0.5],[1,0.5]];portConstraint=eastwest;" vertex="1" parent="3pBGqSBrtArBSsRjVc5b-129">
          <mxGeometry y="103" width="120" height="17" as="geometry" />
        </mxCell>
        <mxCell id="3pBGqSBrtArBSsRjVc5b-179" value="" style="shape=partialRectangle;html=1;whiteSpace=wrap;connectable=0;overflow=hidden;fillColor=none;top=0;left=0;bottom=0;right=0;" vertex="1" parent="3pBGqSBrtArBSsRjVc5b-178">
          <mxGeometry width="17" height="17" as="geometry" />
        </mxCell>
        <mxCell id="3pBGqSBrtArBSsRjVc5b-180" value="" style="shape=partialRectangle;html=1;whiteSpace=wrap;connectable=0;overflow=hidden;fillColor=none;top=0;left=0;bottom=0;right=0;" vertex="1" parent="3pBGqSBrtArBSsRjVc5b-178">
          <mxGeometry x="17" width="17" height="17" as="geometry" />
        </mxCell>
        <mxCell id="3pBGqSBrtArBSsRjVc5b-181" value="" style="shape=partialRectangle;html=1;whiteSpace=wrap;connectable=0;overflow=hidden;fillColor=none;top=0;left=0;bottom=0;right=0;" vertex="1" parent="3pBGqSBrtArBSsRjVc5b-178">
          <mxGeometry x="34" width="17" height="17" as="geometry" />
        </mxCell>
        <mxCell id="3pBGqSBrtArBSsRjVc5b-182" value="" style="shape=partialRectangle;html=1;whiteSpace=wrap;connectable=0;overflow=hidden;fillColor=none;top=0;left=0;bottom=0;right=0;" vertex="1" parent="3pBGqSBrtArBSsRjVc5b-178">
          <mxGeometry x="51" width="18" height="17" as="geometry" />
        </mxCell>
        <mxCell id="3pBGqSBrtArBSsRjVc5b-183" value="" style="shape=partialRectangle;html=1;whiteSpace=wrap;connectable=0;overflow=hidden;fillColor=none;top=0;left=0;bottom=0;right=0;" vertex="1" parent="3pBGqSBrtArBSsRjVc5b-178">
          <mxGeometry x="69" width="17" height="17" as="geometry" />
        </mxCell>
        <mxCell id="3pBGqSBrtArBSsRjVc5b-184" value="" style="shape=partialRectangle;html=1;whiteSpace=wrap;connectable=0;overflow=hidden;fillColor=none;top=0;left=0;bottom=0;right=0;" vertex="1" parent="3pBGqSBrtArBSsRjVc5b-178">
          <mxGeometry x="86" width="17" height="17" as="geometry" />
        </mxCell>
        <mxCell id="3pBGqSBrtArBSsRjVc5b-185" value="" style="shape=partialRectangle;html=1;whiteSpace=wrap;connectable=0;overflow=hidden;fillColor=none;top=0;left=0;bottom=0;right=0;" vertex="1" parent="3pBGqSBrtArBSsRjVc5b-178">
          <mxGeometry x="103" width="17" height="17" as="geometry" />
        </mxCell>
        <mxCell id="3pBGqSBrtArBSsRjVc5b-186" value="" style="whiteSpace=wrap;html=1;aspect=fixed;fillColor=none;strokeColor=#A680B8;strokeWidth=2;" vertex="1" parent="1">
          <mxGeometry x="235" y="171" width="50" height="50" as="geometry" />
        </mxCell>
        <mxCell id="3pBGqSBrtArBSsRjVc5b-245" value="" style="endArrow=none;html=1;exitX=0.823;exitY=-0.1;exitDx=0;exitDy=0;exitPerimeter=0;entryX=-0.008;entryY=0.007;entryDx=0;entryDy=0;entryPerimeter=0;" edge="1" parent="1" source="3pBGqSBrtArBSsRjVc5b-67" target="3pBGqSBrtArBSsRjVc5b-72">
          <mxGeometry width="50" height="50" relative="1" as="geometry">
            <mxPoint x="237" y="250" as="sourcePoint" />
            <mxPoint x="287" y="200" as="targetPoint" />
          </mxGeometry>
        </mxCell>
        <mxCell id="3pBGqSBrtArBSsRjVc5b-246" value="" style="endArrow=none;html=1;exitX=1;exitY=0;exitDx=0;exitDy=0;entryX=-0.006;entryY=-0.01;entryDx=0;entryDy=0;entryPerimeter=0;" edge="1" parent="1" source="3pBGqSBrtArBSsRjVc5b-67" target="3pBGqSBrtArBSsRjVc5b-130">
          <mxGeometry width="50" height="50" relative="1" as="geometry">
            <mxPoint x="237" y="250" as="sourcePoint" />
            <mxPoint x="287" y="200" as="targetPoint" />
          </mxGeometry>
        </mxCell>
        <mxCell id="3pBGqSBrtArBSsRjVc5b-247" value="" style="endArrow=none;html=1;entryX=0;entryY=1.03;entryDx=0;entryDy=0;entryPerimeter=0;" edge="1" parent="1" target="3pBGqSBrtArBSsRjVc5b-120">
          <mxGeometry width="50" height="50" relative="1" as="geometry">
            <mxPoint x="167" y="230" as="sourcePoint" />
            <mxPoint x="287" y="200" as="targetPoint" />
          </mxGeometry>
        </mxCell>
        <mxCell id="3pBGqSBrtArBSsRjVc5b-248" value="" style="endArrow=none;html=1;entryX=0.001;entryY=0.99;entryDx=0;entryDy=0;entryPerimeter=0;" edge="1" parent="1" target="3pBGqSBrtArBSsRjVc5b-178">
          <mxGeometry width="50" height="50" relative="1" as="geometry">
            <mxPoint x="167" y="230" as="sourcePoint" />
            <mxPoint x="287" y="200" as="targetPoint" />
          </mxGeometry>
        </mxCell>
        <mxCell id="3pBGqSBrtArBSsRjVc5b-249" value="" style="shape=table;html=1;whiteSpace=wrap;startSize=0;container=1;collapsible=0;childLayout=tableLayout;" vertex="1" parent="1">
          <mxGeometry x="360" y="170" width="200" height="20" as="geometry" />
        </mxCell>
        <mxCell id="3pBGqSBrtArBSsRjVc5b-250" value="" style="shape=partialRectangle;html=1;whiteSpace=wrap;collapsible=0;dropTarget=0;pointerEvents=0;fillColor=none;top=0;left=0;bottom=0;right=0;points=[[0,0.5],[1,0.5]];portConstraint=eastwest;" vertex="1" parent="3pBGqSBrtArBSsRjVc5b-249">
          <mxGeometry width="200" height="20" as="geometry" />
        </mxCell>
        <mxCell id="3pBGqSBrtArBSsRjVc5b-251" value="1" style="shape=partialRectangle;html=1;whiteSpace=wrap;connectable=0;overflow=hidden;fillColor=none;top=0;left=0;bottom=0;right=0;" vertex="1" parent="3pBGqSBrtArBSsRjVc5b-250">
          <mxGeometry width="22" height="20" as="geometry" />
        </mxCell>
        <mxCell id="3pBGqSBrtArBSsRjVc5b-252" value="2" style="shape=partialRectangle;html=1;whiteSpace=wrap;connectable=0;overflow=hidden;fillColor=none;top=0;left=0;bottom=0;right=0;" vertex="1" parent="3pBGqSBrtArBSsRjVc5b-250">
          <mxGeometry x="22" width="22" height="20" as="geometry" />
        </mxCell>
        <mxCell id="3pBGqSBrtArBSsRjVc5b-253" value="3" style="shape=partialRectangle;html=1;whiteSpace=wrap;connectable=0;overflow=hidden;fillColor=none;top=0;left=0;bottom=0;right=0;" vertex="1" parent="3pBGqSBrtArBSsRjVc5b-250">
          <mxGeometry x="44" width="23" height="20" as="geometry" />
        </mxCell>
        <mxCell id="3pBGqSBrtArBSsRjVc5b-254" value="4" style="shape=partialRectangle;html=1;whiteSpace=wrap;connectable=0;overflow=hidden;fillColor=none;top=0;left=0;bottom=0;right=0;" vertex="1" parent="3pBGqSBrtArBSsRjVc5b-250">
          <mxGeometry x="67" width="22" height="20" as="geometry" />
        </mxCell>
        <mxCell id="3pBGqSBrtArBSsRjVc5b-255" value="5" style="shape=partialRectangle;html=1;whiteSpace=wrap;connectable=0;overflow=hidden;fillColor=none;top=0;left=0;bottom=0;right=0;" vertex="1" parent="3pBGqSBrtArBSsRjVc5b-250">
          <mxGeometry x="89" width="22" height="20" as="geometry" />
        </mxCell>
        <mxCell id="3pBGqSBrtArBSsRjVc5b-256" value="6" style="shape=partialRectangle;html=1;whiteSpace=wrap;connectable=0;overflow=hidden;fillColor=none;top=0;left=0;bottom=0;right=0;" vertex="1" parent="3pBGqSBrtArBSsRjVc5b-250">
          <mxGeometry x="111" width="22" height="20" as="geometry" />
        </mxCell>
        <mxCell id="3pBGqSBrtArBSsRjVc5b-257" value="7" style="shape=partialRectangle;html=1;whiteSpace=wrap;connectable=0;overflow=hidden;fillColor=none;top=0;left=0;bottom=0;right=0;" vertex="1" parent="3pBGqSBrtArBSsRjVc5b-250">
          <mxGeometry x="133" width="23" height="20" as="geometry" />
        </mxCell>
        <mxCell id="3pBGqSBrtArBSsRjVc5b-258" value="8" style="shape=partialRectangle;html=1;whiteSpace=wrap;connectable=0;overflow=hidden;fillColor=none;top=0;left=0;bottom=0;right=0;" vertex="1" parent="3pBGqSBrtArBSsRjVc5b-250">
          <mxGeometry x="156" width="22" height="20" as="geometry" />
        </mxCell>
        <mxCell id="3pBGqSBrtArBSsRjVc5b-259" value="9" style="shape=partialRectangle;html=1;whiteSpace=wrap;connectable=0;overflow=hidden;fillColor=none;top=0;left=0;bottom=0;right=0;" vertex="1" parent="3pBGqSBrtArBSsRjVc5b-250">
          <mxGeometry x="178" width="22" height="20" as="geometry" />
        </mxCell>
      </root>
    </mxGraphModel>
  </diagram>
</mxfile>
